<?xml version="1.0" encoding="UTF-8" standalone="no"?>
<svg
   id="svg2"
   height="1200"
   viewBox="-7 -7 1400 1200"
   width="1400"
   version="1.1"
   preserveAspectRatio="xMidYMid meet"
   xmlns="http://www.w3.org/2000/svg"
   xmlns:svg="http://www.w3.org/2000/svg"
   xmlns:rdf="http://www.w3.org/1999/02/22-rdf-syntax-ns#"
   xmlns:cc="http://creativecommons.org/ns#"
   xmlns:dc="http://purl.org/dc/elements/1.1/">
  <defs
     id="defs1" />
  <title
     id="title14491">Facility Map</title>
  <metadata
     id="metadata7">
    <rdf:RDF>
      <cc:Work
         rdf:about="">
        <dc:format>image/svg+xml</dc:format>
        <dc:type
           rdf:resource="http://purl.org/dc/dcmitype/StillImage" />
        <dc:title>Facility Map</dc:title>
      </cc:Work>
    </rdf:RDF>
  </metadata>
  <path
     style="baseline-shift:baseline;display:inline;overflow:visible;fill:none;stroke:#5e5c64;stroke-width:5.33333;stroke-linecap:round;stroke-miterlimit:10;stroke-dasharray:none;stroke-opacity:1;enable-background:accumulate;stop-color:#000000"
     d="m 692.767,341.35088 c -139.21395,0 -252.46875,113.2548 -252.46875,252.46873 0,139.214 113.2548,252.4688 252.46875,252.4688 139.21395,0 252.46878,-113.2548 252.46878,-252.4688 0,-139.21393 -113.25483,-252.46873 -252.46878,-252.46873 z m 0,37.33203 c 119.03752,0 215.13672,96.0992 215.13672,215.1367 0,119.0375 -96.0992,215.1367 -215.13672,215.1367 -119.03752,0 -215.13672,-96.0992 -215.13672,-215.1367 0,-119.0375 96.0992,-215.1367 215.13672,-215.1367 z"
     id="path2-9" />
  <circle
     style="fill:none;stroke:#1c71d8;stroke-width:5.33333333;stroke-linecap:round;stroke-miterlimit:10;stroke-dasharray:none"
     id="path1"
     cx="693"
     cy="593"
     r="323.23944" />
  <circle
     style="fill:none;stroke:#613583;stroke-width:5;stroke-linecap:round;stroke-miterlimit:10;stroke-dasharray:none"
     id="path2"
     cx="693"
     cy="593"
     r="233.80283" />
  <path
     class="beamline"
     d="M 699.08696,358.6583 H 1065.6222"
     id="SAXS-EPU" />
  <path
     class="beamline"
     d="M 852.15493,421.16901 1125.4499,722.09563"
     id="MX-ID" />
  <path
     class="beamline"
     d="m 925.39437,619.76056 -9.21053,326.03781"
     id="STXM-IVU" />
  <path
     class="beamline"
     d="M 786.04042,806.89374 555.37603,929.0001"
     id="PES-EPU" />
  <path
     class="beamline"
     d="M 593.28848,803.7767 454.08774,756.4821"
     id="FTIR-BM" />
  <path
     class="beamline"
     d="M 460.60563,622.57746 425.00519,90.275761"
     id="XRD-EPU" />
  <path
     class="beamline"
     d="M 533.25523,421.62816 775.30658,152.04517"
     id="XAS-EPU" />
  <path
     class="beamline"
     d="m 872.32343,742.70926 c -2.89138,5.78256 -222.08746,290.19284 -222.08746,290.19284"
     id="RXS-IVU" />
  <path
     class="beamline"
     d="M 469.10922,663.28415 383.50878,252.03509"
     id="XES-IVU" />
  <path
     style="baseline-shift:baseline;display:inline;overflow:visible;opacity:1;fill:none;stroke:#5e5c64;stroke-width:5.33333;stroke-linecap:round;stroke-linejoin:round;stroke-miterlimit:10;stroke-dasharray:none;stroke-opacity:1;enable-background:accumulate;stop-color:#000000;stop-opacity:1"
     d="m 571.43854,744.59257 c 33.59,27.35603 70.97009,43.94134 105.78182,48.3537 34.81177,4.41237 68.66142,-3.83065 89.17064,-29.01357 20.50922,-25.18292 21.72849,-60.00044 10.35966,-93.198 -11.3688,-33.19753 -35.17846,-66.44574 -68.76846,-93.80177 -33.59001,-27.35604 -70.97009,-43.94135 -105.78184,-48.35371 -34.81174,-4.41235 -68.66143,3.83064 -89.17065,29.01356 -20.50922,25.18292 -21.72845,60.00047 -10.35965,93.198 11.36881,33.19754 35.17847,66.44576 68.76848,93.80179 z m 21.04865,-25.84529 c -29.23663,-23.8106 -49.37911,-52.75828 -58.28198,-78.75515 -8.90287,-25.99688 -6.71258,-47.37139 4.6713,-61.34946 11.38389,-13.97808 31.87233,-20.4504 59.13328,-16.9951 27.26095,3.4553 59.68712,17.32003 88.92376,41.13064 29.23663,23.8106 49.3791,52.75828 58.28197,78.75516 8.90287,25.99687 6.71411,47.37262 -4.66978,61.3507 -11.38388,13.97807 -31.87384,20.44915 -59.13479,16.99386 -27.26096,-3.45531 -59.68713,-17.32005 -88.92376,-41.13065 z"
     id="path11" />
  <path
     class="beamline"
     d="M 673.62601,361.43089 1020.6491,263.86992"
     id="LIGA-BM" />
  <path
     class="beamline"
     d="M 671.87577,827.0894 211.94309,844.31775"
     id="XMD-EPU" />
  <path
     class="beamline"
     d="M 917.55284,533.04065 1105.482,1151.0404"
     id="XT-EPU" />
  <path
     class="beamline"
     d="M 504.33895,733.53034 270.01626,405.74793"
     id="XFM-ID" />
</svg>
