<?xml version="1.0" encoding="UTF-8" standalone="no"?>
<!-- Created with Inkscape (http://www.inkscape.org/) -->

<svg
   width="300mm"
   height="90mm"
   viewBox="0 0 300 90"
   version="1.1"
   id="svg1"
   inkscape:version="1.4 (e7c3feb100, 2024-10-09)"
   sodipodi:docname="logo-horiz-white.svg"
   xmlns:inkscape="http://www.inkscape.org/namespaces/inkscape"
   xmlns:sodipodi="http://sodipodi.sourceforge.net/DTD/sodipodi-0.dtd"
   xmlns="http://www.w3.org/2000/svg"
   xmlns:svg="http://www.w3.org/2000/svg">
  <sodipodi:namedview
     id="namedview1"
     pagecolor="#ffffff"
     bordercolor="#000000"
     borderopacity="0.25"
     inkscape:showpageshadow="2"
     inkscape:pageopacity="0.0"
     inkscape:pagecheckerboard="0"
     inkscape:deskcolor="#d1d1d1"
     inkscape:document-units="mm"
     inkscape:zoom="0.72248176"
     inkscape:cx="397.24186"
     inkscape:cy="146.02445"
     inkscape:window-width="1920"
     inkscape:window-height="1014"
     inkscape:window-x="0"
     inkscape:window-y="29"
     inkscape:window-maximized="1"
     inkscape:current-layer="layer1" />
  <defs
     id="defs1">
    <inkscape:perspective
       sodipodi:type="inkscape:persp3d"
       inkscape:vp_x="4.7607891 : 32.18249 : 1"
       inkscape:vp_y="0 : 1000 : 0"
       inkscape:vp_z="308.42293 : 36.577065 : 1"
       inkscape:persp3d-origin="158.42293 : 21.577065 : 1"
       id="perspective1" />
  </defs>
  <g
     inkscape:label="Layer 1"
     inkscape:groupmode="layer"
     id="layer1">
    <path
       id="rect6-5-7"
       style="fill:none;stroke:#ffffff;stroke-width:1.05833333;stroke-dasharray:none;opacity:0.59997622"
       transform="rotate(-17.862866)"
       d="M 21.81625,24.043291 H 36.746791 V 68.834913 H 21.81625 Z M 36.543523,43.859564 43.553865,57.041983 4.0066086,78.073006 -3.0037326,64.890587 Z m 2.985937,34.459174 -4.579792,14.21079 -42.6323703,-13.739374 4.5797914,-14.21079 z" />
    <path
       style="font-size:42.3333px;font-family:'Mr De Haviland';-inkscape-font-specification:'Mr De Haviland, Normal';fill:#ffffff;stroke:#ffffff;stroke-width:0.352778"
       d="m 111.98248,42.587031 q 0,1.650999 -2.24366,2.201332 -0.127,0 -0.127,-0.169334 0,-0.169333 0.29633,-0.380999 0.84667,-0.635 0.84667,-1.396999 0,-1.481666 -2.37067,-2.158999 -3.13266,3.852331 -8.720657,6.392329 -5.545662,2.539998 -9.863659,2.539998 -4.317997,0 -4.317997,-1.777999 0,-1.481665 2.920998,-3.513664 2.963331,-2.074331 7.577661,-3.59833 4.656664,-1.566332 8.762994,-1.566332 2.032,0 3.47133,0.296333 1.31233,-2.328332 1.31233,-4.86833 0,-1.481666 -1.31233,-2.455332 -1.31233,-1.015999 -3.51366,-1.015999 -2.20134,0 -4.191,0.889 -0.42333,0.296333 -0.677333,0.296333 -0.465667,0 -0.465667,-0.211667 0,-0.254 0.635,-0.592666 0.93133,-0.296333 3.556,-2.285998 2.667,-1.989666 5.16466,-4.825997 2.54,-2.878664 2.54,-4.825996 0,-3.174998 -6.858,-3.174998 -4.825993,0 -10.286989,1.989665 -5.418663,1.947332 -9.143993,5.12233 -3.725331,3.132664 -3.725331,6.138329 0,1.608665 1.989665,1.608665 2.836332,0 5.587996,-1.396999 2.751665,-1.439332 7.196661,-5.164663 0.550333,-0.634999 0.762,-0.634999 0.465666,0 0.465666,0.296333 0,0.08467 -0.296333,0.592666 -1.100666,1.100666 -3.090331,2.666998 -1.989665,1.566332 -3.682997,2.624665 -1.693332,1.058332 -3.852331,1.904998 -2.116665,0.846666 -3.85233,0.846666 -3.005664,0 -3.005664,-2.666998 0,-3.47133 4.529663,-7.111994 4.529663,-3.682997 10.625659,-5.926662 6.138329,-2.285999 10.964329,-2.285999 7.66232,0 7.66232,3.767664 0,2.751665 -3.68299,6.519329 -3.64067,3.72533 -6.56167,5.122329 1.31234,-0.254 2.45534,-0.254 2.66699,0 4.10633,1.016 1.43933,1.015999 1.43933,2.751664 0,2.963331 -1.905,5.799662 2.87866,0.846666 2.87866,2.878665 z m -7.70466,-2.412998 q -3.21733,0 -7.281325,1.354665 -4.063997,1.354666 -6.815661,3.090331 -2.709331,1.735666 -2.709331,2.793998 0,1.100666 2.582331,1.100666 2.624665,0 5.714996,-0.846666 3.132664,-0.804333 6.51933,-2.709331 3.429,-1.947332 5.24933,-4.48733 -1.60867,-0.296333 -3.25967,-0.296333 z m 0.46567,-21.081984 q 0,0.126999 -4.952997,8.635993 -4.910663,8.508994 -7.238994,12.403657 -0.254,0.550333 -0.931333,0.846666 -0.677333,0.296334 -1.058332,0.296334 -0.338667,0 -0.338667,-0.169334 0,-0.211666 3.132664,-5.460996 3.132665,-5.291662 6.222996,-10.498658 3.132663,-5.206996 3.047993,-5.24933 0.254,-0.423333 0.84667,-0.634999 l 1.05833,-0.338667 z m 10.45636,22.944649 q -2.54,0 -2.54,-1.100666 0,-1.312332 3.00567,-3.090331 3.00566,-1.820332 5.41866,-1.820332 1.22767,0 1.22767,0.762 0,0.423333 -0.635,0.931332 -0.635,0.508 -1.22767,0.804333 -0.59266,0.296333 -0.67733,0.296333 -0.254,0 -0.33867,-0.211666 -0.0847,-0.296334 0.42334,-0.592667 0.55033,-0.338666 0.55033,-0.719666 0,-0.380999 -0.97367,-0.380999 -0.93133,0 -2.96333,1.354665 -2.032,1.312333 -2.032,2.158999 0,0.634999 1.48167,0.634999 0.254,0 0.93133,-0.04233 0.67733,-0.04233 0.67733,0.169333 0,0.211666 -2.11666,1.523999 -2.07433,1.312332 -2.07433,2.243665 0,1.058332 1.35466,1.058332 1.397,0 3.13267,-0.719666 2.79399,-1.227666 5.07999,-2.624664 l 0.80434,-0.508 q 0.0423,0.08467 0.0423,0.338666 0,0.254 -0.381,0.423333 -2.24367,1.523999 -4.91066,2.920998 -2.667,1.354666 -4.826,1.354666 -2.11666,0 -2.11666,-1.396999 0,-1.439332 3.68299,-3.767664 z m 9.86369,-0.508 q -2.032,1.862666 -2.58233,1.862666 -0.16933,0 -0.16933,-0.169334 0,-0.169333 0.127,-0.296333 1.01599,-0.550333 2.37066,-1.777998 -0.21167,-0.508 -0.21167,-1.100666 0,-1.439332 1.48167,-2.751665 1.48166,-1.312332 2.49766,-1.312332 0.55034,0 0.55034,0.550333 0,0.507999 -1.69333,2.539998 -0.16934,0.211666 -0.381,0.423333 -0.21167,0.211666 -0.46567,0.508 -0.21167,0.253999 -0.33867,0.380999 0.21167,0.211667 0.762,0.762 0.55033,0.507999 0.889,0.846666 0.93133,0.931332 0.93133,2.328331 0,1.396999 -1.73566,2.412998 -1.73567,1.058333 -3.64067,1.058333 -1.86266,0 -1.86266,-1.142999 0,-1.100666 1.73566,-2.031999 1.73567,-0.931332 3.64067,-1.269999 -0.254,-0.338666 -0.97367,-0.888999 -0.67733,-0.550333 -0.93133,-0.931333 z m 2.20133,2.328332 q -1.43933,0.169333 -2.70933,0.804333 -1.27,0.592666 -1.27,1.439332 0,0.804333 1.143,0.804333 1.18533,0 2.07433,-0.550333 0.93134,-0.550333 0.93134,-1.227666 0,-0.677333 -0.16934,-1.269999 z m -1.31233,-3.809997 1.10067,-1.185333 q 1.10066,-1.312332 1.10066,-1.566332 0,-0.296333 -0.254,-0.296333 -0.71966,0 -1.48166,0.719666 -0.762,0.677333 -0.762,1.354666 0,0.634999 0.29633,0.973666 z m 9.90601,-0.677333 q 2.794,-1.566332 4.74133,-1.566332 1.98967,0 1.98967,1.650999 0,2.243665 -2.83633,4.698996 -2.794,2.412998 -5.588,2.412998 -0.254,0 -0.635,-0.254 -0.381,-0.253999 -0.381,-0.846666 0,-0.592666 0.93133,-1.396999 0.97367,-0.804332 1.143,-0.804332 0.21167,0 0.381,0.08467 0.21167,0.04233 0.381,0.211667 0.21167,0.169333 0.21167,0.296333 0,0.127 -0.21167,0.338666 -0.42333,0.296333 -0.93133,0.804333 -0.46567,0.465666 -0.46567,0.677333 0,0.169333 0.42334,0.169333 0.42333,0 1.77799,-0.592666 1.35467,-0.635 2.70934,-2.031999 1.35466,-1.439332 1.35466,-3.132664 0,-1.058332 -1.22766,-1.058332 -1.86267,0 -4.40267,1.439332 -3.64066,6.095995 -4.57199,7.789327 -3.683,6.773329 -6.56167,10.540992 -2.87866,3.809998 -5.16466,3.809998 -0.762,0 -0.762,-0.931333 0,-3.725331 4.953,-10.286992 4.91066,-6.519329 10.45632,-10.540992 4.27567,-7.069662 5.16467,-8.84766 -0.46567,0.550332 -1.56634,1.312332 l -2.41299,1.650999 q -0.254,0.08467 -0.46567,0.08467 -0.21167,0 -0.254,-0.211666 3.97933,-2.497665 5.88433,-4.571997 0.46566,-0.507999 0.508,-0.634999 0.127,-0.127 0.59266,-0.08467 0.46567,0.04233 0.46567,0.423333 0,0.169333 -0.635,1.185333 -0.59267,0.973665 -4.99533,8.21266 z m -6.43466,8.551327 3.429,-5.841996 q -4.86833,3.682998 -9.18633,9.821326 -4.318,6.180662 -4.318,9.10166 0,0.381 0.254,0.381 2.667,0 9.82133,-13.46199 z m 22.60599,-4.74133 q -1.31233,0.804333 -3.048,0.804333 h -0.508 q -1.143,1.312332 -2.45533,2.158998 -1.27,0.804333 -2.20133,0.804333 -1.31233,0 -1.31233,-1.693332 0,-1.693332 1.82033,-3.936997 -0.16934,-0.465666 -0.16934,-1.142999 0,-1.481666 1.27,-2.539998 1.31234,-1.100666 2.54,-1.100666 2.58233,0 2.58233,2.793998 0,1.862665 -1.60866,4.063997 h 0.508 q 1.35466,0 2.32833,-0.635 0.127,-0.127 0.33867,-0.127 0.21166,0 0.21166,0.169333 0,0.127 -0.29633,0.381 z m -4.064,-4.86833 q 0.21167,-0.08467 0.33867,-0.08467 0.127,0 0.127,0.211666 0,0.169334 -0.46567,0.508 -1.69333,1.312332 -2.54,2.370665 0.93134,1.481665 2.83634,1.947332 1.65099,-1.947332 1.65099,-3.640664 0,-0.973666 -0.635,-1.481666 -0.635,-0.507999 -1.65099,-0.507999 -0.97367,0 -1.82034,0.592666 -0.84666,0.550333 -0.84666,1.227666 0,0.634999 0.127,1.015999 1.31233,-1.354666 2.87866,-2.158999 z m -3.13266,3.936998 q -0.67734,1.142999 -0.67734,2.539998 0,0.761999 0.67734,0.761999 1.143,0 2.83633,-1.693332 -1.905,-0.338666 -2.83633,-1.608665 z m 17.78,1.947331 3.47133,-2.031998 q 0.0423,0.08467 0.0423,0.338666 0,0.254 -0.38099,0.423333 -5.75733,3.852331 -8.21267,3.852331 -2.11666,0 -2.11666,-2.793998 0,-1.142999 0.381,-2.074332 0.381,-0.973666 1.22767,-0.973666 2.92099,0 4.52966,-0.888999 1.651,-0.888999 1.651,-1.820332 0,-0.973666 -1.35467,-0.973666 -3.048,0 -7.74699,5.503329 -1.43933,2.709331 -2.159,4.148664 -0.21167,0.380999 -0.59267,0.380999 -0.84666,0 -0.84666,-0.592666 0,-0.254 0.16933,-0.592666 l 3.76766,-6.603995 q 3.59833,-6.349995 7.366,-11.429992 3.76766,-5.079996 5.67266,-5.079996 0.635,0 0.889,0.592667 0.127,0.211666 0.127,0.507999 0,1.523999 -2.62466,4.783663 -2.62467,3.259664 -4.91067,5.503329 -2.286,2.243665 -4.65666,4.36033 l -1.18533,2.116666 q 4.57199,-4.656664 7.95866,-4.656664 1.94733,0 1.94733,1.269999 0,1.396999 -2.20133,2.793998 -2.159,1.396999 -5.41867,1.396999 -0.46566,0.677333 -0.46566,1.523999 0,2.370665 1.86266,2.370665 1.35467,0 3.683,-1.269999 0.0847,-0.08467 0.127,-0.08467 z m 4.48733,-19.642652 q 0,-0.423333 -0.21167,-0.423333 -2.32833,0 -9.69432,12.953991 3.72533,-3.428998 6.81566,-6.984995 3.09033,-3.598331 3.09033,-5.545663 z m 0.12701,17.483654 q -2.54,0 -2.54,-1.100666 0,-1.312332 3.00567,-3.090331 3.00566,-1.820332 5.41866,-1.820332 1.22766,0 1.22766,0.762 0,0.423333 -0.63499,0.931332 -0.635,0.508 -1.22767,0.804333 -0.59267,0.296333 -0.67733,0.296333 -0.254,0 -0.33867,-0.211666 -0.0847,-0.296334 0.42333,-0.592667 0.55034,-0.338666 0.55034,-0.719666 0,-0.380999 -0.97367,-0.380999 -0.93133,0 -2.96333,1.354665 -2.032,1.312333 -2.032,2.158999 0,0.634999 1.48167,0.634999 0.254,0 0.93133,-0.04233 0.67733,-0.04233 0.67733,0.169333 0,0.211666 -2.11666,1.523999 -2.07433,1.312332 -2.07433,2.243665 0,1.058332 1.35466,1.058332 1.397,0 3.13267,-0.719666 2.79399,-1.227666 5.07999,-2.624664 l 0.80433,-0.508 q 0.0423,0.08467 0.0423,0.338666 0,0.254 -0.381,0.423333 -2.24367,1.523999 -4.91067,2.920998 -2.66699,1.354666 -4.82599,1.354666 -2.11667,0 -2.11667,-1.396999 0,-1.439332 3.683,-3.767664 z m 41.31727,-23.918315 -3.76767,-0.04233 h -0.42333 q -4.48733,0 -8.84766,1.269999 -4.318,1.269999 -7.28133,3.132665 -2.921,1.820332 -4.699,3.767664 -1.82033,1.947331 -1.82033,3.34433 0,1.904999 2.921,1.904999 2.87867,0 6.985,-1.947332 4.14866,-1.989665 6.94266,-4.99533 0.46566,-0.465666 0.635,-0.465666 0.0847,0 0.0847,0.127 0,0.127 -0.0423,0.211667 -1.18533,2.793997 -5.75733,5.757329 -4.52966,2.920997 -8.88999,2.920997 -1.86267,0 -2.794,-0.761999 -0.97367,-0.761999 -0.97367,-2.328332 0,-1.608665 1.778,-3.894663 1.73567,-2.328332 4.78367,-4.48733 3.04799,-2.158999 7.91632,-3.640664 4.91067,-1.481666 10.37166,-1.481666 17.94932,0 18.54199,-0.08467 0.59266,-0.08467 0.97366,-0.08467 0.42334,0 0.42334,0.169333 0,0.169333 -0.46567,0.550333 -0.42333,0.338667 -1.524,0.719666 -1.05833,0.338667 -2.413,0.338667 -6.34999,0 -12.65765,0 z m -1.524,1.862665 q 0,0.08467 -0.0847,0.254 l -8.42433,16.340654 q 3.47133,-0.08467 4.99533,-0.08467 h 1.60867 q 2.75166,0.04233 2.75166,0.338666 0,0.254 -0.635,0.719666 -0.59266,0.423333 -1.143,0.423333 -1.18533,-0.08467 -5.63032,-0.08467 h -2.62467 l -4.14866,8.085661 q -0.254,0.550333 -0.93134,0.846666 -0.67733,0.296333 -1.05833,0.296333 -0.33866,0 -0.33866,-0.211666 0,-0.211667 4.61433,-8.97466 -5.24933,0.169333 -8.04333,0.507999 -0.33867,0 -0.33867,-0.169333 0,-0.211666 0.80433,-0.931332 0.67734,-0.423333 8.255,-0.677333 8.33966,-15.790322 8.25499,-15.874988 0.254,-0.423333 0.84667,-0.635 l 1.05833,-0.338666 z m 4.57199,21.124317 q -0.254,0 -0.254,-0.296333 l 0.127,-0.296333 q 0.762,-0.719666 0.762,-1.227666 0,-0.634999 -0.67733,-0.634999 -1.48167,0 -4.02167,2.074332 -2.49766,2.031998 -2.49766,3.640664 0,0.677332 0.889,0.677332 0.889,0 2.032,-0.719666 1.18533,-0.761999 1.98966,-1.481665 0.84667,-0.762 0.93134,-0.762 0.42333,0.04233 0.42333,0.423333 0,0.169334 -0.67733,1.100666 -0.635,0.931333 -0.635,1.481666 0,0.423333 0.67733,0.423333 0.71966,0 2.49766,-0.804333 1.778,-0.846666 3.13267,-1.693332 l 1.35466,-0.846666 q 0.0423,0.08467 0.0423,0.338666 0,0.254 -0.381,0.423333 -5.715,3.894664 -7.95866,3.894664 -1.10067,0 -1.10067,-1.100666 0,-0.465666 0.16933,-0.973666 -0.29633,0.338667 -1.77799,1.058333 -1.43934,0.677333 -2.58234,0.677333 -1.143,0 -1.143,-1.058333 0,-2.497665 3.47134,-5.079996 3.47133,-2.624665 5.84199,-2.624665 1.397,0 1.397,1.185333 0,0.677333 -0.84667,1.439332 -0.84666,0.761999 -1.18533,0.761999 z m 10.45631,3.852331 q 2.032,-0.846666 4.36033,-2.285998 l 0.80433,-0.508 q 0.0423,0.08467 0.0423,0.338666 0,0.254 -0.381,0.423333 -2.24367,1.523999 -4.48733,2.666998 -2.24367,1.142999 -4.14867,1.142999 -2.413,0 -2.413,-1.735665 0,-2.074332 2.87867,-4.656663 2.921,-2.624665 5.75733,-2.624665 1.18533,0 1.18533,1.015999 0,0.592667 -1.05833,1.481666 -1.48167,1.227666 -1.86267,1.227666 -0.381,0 -0.381,-0.338667 0,-0.127 0.16934,-0.253999 0.42333,-0.254 0.93133,-0.762 0.55033,-0.550333 0.55033,-0.931332 0,-0.592667 -0.55033,-0.592667 -1.18533,0 -3.47133,2.158999 -2.286,2.116665 -2.286,3.428997 0,1.481666 1.60866,1.481666 1.05834,0 2.32834,-0.508 z m 11.51465,-11.726325 q 0.635,0 0.635,0.635 0,0.634999 -0.59266,1.312332 -0.59267,0.635 -1.31234,0.635 -0.59266,0 -0.59266,-0.804333 0,-0.846666 0.67733,-1.312332 0.67733,-0.465667 1.18533,-0.465667 z m -3.97933,5.587996 q 0.21167,-0.338666 0.59267,-0.338666 0.381,0 0.762,0.380999 0,0.169334 -0.55033,0.762 -0.55034,0.592666 -1.86267,2.666998 -1.31233,2.031998 -1.31233,2.709331 0,0.423333 0.635,0.508 0.84666,0 2.62466,-0.804333 1.778,-0.846666 3.13267,-1.693332 l 1.35466,-0.846666 q 0.0423,0.08467 0.0423,0.338666 0,0.254 -0.381,0.423333 -5.715,3.894664 -7.95867,3.894664 -1.10066,0 -1.10066,-1.100666 0,-1.100666 1.18533,-3.047997 1.22767,-1.989666 2.83633,-3.852331 z m 5.29168,8.000994 q -1.905,0 -1.905,-2.074332 0,-2.751664 2.96333,-7.873994 3.00567,-5.164663 6.81566,-9.22866 3.85234,-4.10633 6.05367,-4.10633 0.80433,0 0.80433,1.142999 0,1.777999 -3.00566,5.799663 -2.96334,4.021663 -6.39233,7.535327 -3.429,3.513664 -5.29167,4.825997 -0.0847,0.677333 -0.0847,0.931332 0,0.211667 0.0423,0.508 0.0423,0.296333 0.33867,0.761999 0.29633,0.465667 0.97366,0.465667 0.71967,0 2.49767,-0.804333 1.778,-0.846666 3.13266,-1.693332 l 1.35467,-0.846666 q 0.0423,0.08467 0.0423,0.338666 0,0.254 -0.381,0.423333 -5.71499,3.894664 -7.95866,3.894664 z m 13.20799,-21.124317 q -0.0423,-0.931333 -0.55033,-0.931333 -1.31233,0 -3.97933,2.963331 -2.667,2.963331 -5.16467,7.111995 -2.49766,4.10633 -3.25966,7.069661 1.778,-1.439332 4.572,-4.23333 2.79399,-2.793998 5.50333,-6.392329 2.70933,-3.59833 2.87866,-5.587995 z m 1.39704,7.535327 q 0.635,0 0.635,0.635 0,0.634999 -0.59267,1.312332 -0.59267,0.635 -1.31233,0.635 -0.59267,0 -0.59267,-0.804333 0,-0.846666 0.67733,-1.312332 0.67734,-0.465667 1.18534,-0.465667 z m -3.97933,5.587996 q 0.21166,-0.338666 0.59266,-0.338666 0.381,0 0.762,0.380999 0,0.169334 -0.55033,0.762 -0.55033,0.592666 -1.86267,2.666998 -1.31233,2.031998 -1.31233,2.709331 0,0.423333 0.635,0.508 0.84667,0 2.62467,-0.804333 1.77799,-0.846666 3.13266,-1.693332 l 1.35467,-0.846666 q 0.0423,0.08467 0.0423,0.338666 0,0.254 -0.381,0.423333 -5.715,3.894664 -7.95866,3.894664 -1.10067,0 -1.10067,-1.100666 0,-1.100666 1.18534,-3.047997 1.22766,-1.989666 2.83633,-3.852331 z m 5.08001,-6.646328 q 2.87866,0 5.67266,-0.04233 4.52966,-5.799662 6.18066,-5.799662 0.59267,0 0.59267,0.635 0,2.031998 -2.96333,5.079996 l 3.21733,-0.04233 q 3.21733,-0.127 3.937,-0.127 0.71966,0 0.71966,0.169333 0,0.804333 -1.10066,0.846666 l -7.95867,0.338666 q -2.07433,1.947332 -5.12232,4.106331 -3.21734,5.291662 -3.21734,7.196661 0,0.973666 1.22767,0.973666 1.27,0 3.97933,-1.354666 l 3.429,-1.989665 q 0.0423,0.08467 0.0423,0.338666 0,0.254 -0.381,0.423333 -1.35466,0.931333 -2.96333,1.862666 -3.429,1.735665 -5.24933,1.735665 -0.84667,0 -1.31233,-0.338666 -0.46567,-0.338667 -0.508,-0.677333 l -0.0847,-0.338667 q 0,-1.439332 1.94733,-4.825996 1.94734,-3.428997 4.61433,-6.984995 -2.03199,0.08467 -3.85233,0.08467 -1.82033,0 -1.82033,-0.423333 0,-0.804333 0.97367,-0.846666 z m 11.13366,-4.317997 q 0,-0.211667 -0.16934,-0.211667 -0.97366,0 -4.31799,4.444997 h 2.11666 q 2.37067,-2.582331 2.37067,-4.23333 z m -3.556,5.418663 q -1.35467,0 -1.82033,0.04233 -0.381,0.550333 -1.05834,1.608665 -0.67733,1.058333 -0.93133,1.439333 2.20133,-1.608666 3.81,-3.090331 z m 10.71031,4.952996 q 0,0.04233 -0.97366,1.523999 -0.93134,1.439332 -1.48167,2.201331 -0.508,0.762 -4.40266,7.111995 0.33866,-0.04233 1.10066,-0.04233 2.032,0 2.032,1.058332 0,0.592667 -0.762,1.396999 -0.762,0.804333 -1.18533,0.804333 -0.42333,0 -0.42333,-0.296333 0,-0.169333 0.46566,-0.550333 0.46567,-0.338666 0.46567,-0.846666 0,-0.465666 -0.84667,-0.465666 -0.80433,0 -1.56633,0.127 -3.85233,6.307661 -6.64633,9.863659 -2.79399,3.555997 -4.78366,3.555997 -1.43933,0 -1.43933,-1.481665 0,-2.539999 3.85233,-7.069662 3.81,-4.48733 8.29733,-5.757329 l 4.06399,-7.027328 q -1.778,1.608666 -3.68299,2.836331 -1.86267,1.227666 -2.83634,1.227666 -0.97366,0 -0.97366,-0.888999 0,-1.354666 4.445,-7.492995 0.21166,-0.338666 0.55033,-0.338666 0.97366,0.296333 0.97366,0.423333 0,0.127 -0.254,0.508 -3.80999,5.164662 -3.80999,5.968995 0,0.508 0.55033,0.508 0.59267,0 2.37067,-1.354666 1.82033,-1.354666 3.09033,-2.751665 l 2.37066,-2.878664 q 0.254,-0.296333 0.635,-0.296333 0.80433,0.127 0.80433,0.423333 z m -16.34065,17.779987 q -1.22767,1.693332 -1.94733,3.174997 -0.71967,1.523999 -0.71967,2.370665 0,0.888999 0.67733,0.888999 2.11667,0 9.271,-11.853324 -2.11667,0.677333 -4.064,2.201332 -1.98967,1.566332 -3.21733,3.217331 z"
       id="text7"
       aria-label="Bespoke Facility" />
    <path
       style="font-weight:100;font-size:9.17222px;font-family:Montserrat;-inkscape-font-specification:'Montserrat, Thin';opacity:0.60201;fill:#ffffff;stroke:#ffffff;stroke-width:0.352778"
       d="M 86.671797,73.242912 V 66.99663 h 2.384778 v -0.174272 h -4.952999 v 0.174272 h 2.384777 v 6.246282 z m 8.502651,-3.34786 h -4.677832 v -3.072694 h -0.183444 v 6.420554 h 0.183444 v -3.173588 h 4.677832 v 3.173588 h 0.183445 v -6.420554 h -0.183445 z m 2.8067,0.174272 h 3.540472 V 69.895052 H 97.981148 V 66.99663 h 3.953222 v -0.174272 h -4.136667 v 6.420554 h 4.274257 V 73.06864 h -4.090812 z m 12.244912,3.173588 V 73.06864 h -3.82482 v -6.246282 h -0.18344 v 6.420554 z m 6.31965,0 -2.98097,-6.420554 h -0.18344 l -2.98097,6.420554 h 0.21096 l 0.89887,-1.935338 h 3.92571 l 0.89888,1.935338 z m -3.07269,-6.172904 1.8803,4.063294 h -3.76061 z m 7.4937,3.861505 c 0.99977,-0.256822 1.57762,-0.963083 1.57762,-1.999544 0,-1.329972 -0.94474,-2.109611 -2.52236,-2.109611 h -2.17381 v 6.420554 h 0.18344 v -2.201333 h 1.99037 c 0.266,0 0.52282,-0.01834 0.75213,-0.06421 l 1.63265,2.265538 h 0.22931 z m -2.93511,-3.934883 h 2.00872 c 1.50424,0 2.32057,0.706261 2.32057,1.935339 0,1.229077 -0.81633,1.935338 -2.32057,1.935338 h -2.00872 z m 11.0617,5.374921 c -0.55034,0.522817 -1.2566,0.724606 -2.03624,0.724606 -1.79775,0 -3.1369,-1.329972 -3.1369,-3.063522 0,-1.733549 1.33915,-3.063521 3.1369,-3.063521 0.80716,0 1.51342,0.210961 2.10044,0.770466 l 0.11007,-0.128411 c -0.55034,-0.550333 -1.33915,-0.816328 -2.21051,-0.816328 -1.90782,0 -3.32034,1.385006 -3.32034,3.237794 0,1.852789 1.41252,3.237794 3.32034,3.237794 0.87136,0 1.66017,-0.275167 2.21051,-0.8255 v -2.348088 h -0.17427 z m 2.60491,-2.302227 h 3.54048 v -0.174272 h -3.54048 V 66.99663 h 3.95323 v -0.174272 h -4.13668 v 6.420554 h 4.27426 V 73.06864 h -4.09081 z m 7.42949,0.834672 v -0.174272 h -2.29306 v 0.174272 z m 3.20109,2.366433 c 1.52259,0 2.19216,-0.752122 2.19216,-1.605139 0,-2.320571 -4.08164,-1.082322 -4.08164,-3.246966 0,-0.797983 0.62371,-1.44921 1.97203,-1.44921 0.57785,0 1.23825,0.183444 1.75189,0.559505 l 0.1009,-0.146755 c -0.46779,-0.357717 -1.17405,-0.587023 -1.86196,-0.587023 -1.50425,0 -2.1463,0.770467 -2.1463,1.614311 0,2.366433 4.08163,1.100667 4.08163,3.256138 0,0.788811 -0.62371,1.430867 -2.01788,1.430867 -0.89888,0 -1.71521,-0.376061 -2.11879,-0.853017 l -0.12841,0.119239 c 0.4311,0.531989 1.3208,0.90805 2.25637,0.90805 z m 6.55813,0 c 0.84385,0 1.63266,-0.275167 2.18299,-0.8255 l -0.11007,-0.128411 c -0.58702,0.559505 -1.29328,0.779639 -2.07292,0.779639 -1.77024,0 -3.10938,-1.329972 -3.10938,-3.063522 0,-1.733549 1.33914,-3.063521 3.10938,-3.063521 0.77964,0 1.4859,0.210961 2.07292,0.770466 l 0.11007,-0.128411 c -0.55033,-0.550333 -1.33914,-0.816328 -2.18299,-0.816328 -1.8803,0 -3.29282,1.385006 -3.29282,3.237794 0,1.852789 1.41252,3.237794 3.29282,3.237794 z m 8.73196,-0.02752 -2.98097,-6.420554 h -0.18345 l -2.98097,6.420554 h 0.21096 l 0.89888,-1.935338 h 3.92571 l 0.89888,1.935338 z m -3.07269,-6.172904 1.8803,4.063294 h -3.76061 z m 8.3834,6.172904 V 73.06864 h -3.82482 v -6.246282 h -0.18344 v 6.420554 z m 1.49507,-3.173588 h 3.54048 v -0.174272 h -3.54048 V 66.99663 h 3.95323 v -0.174272 h -4.13667 v 6.420554 h 4.27425 V 73.06864 h -4.09081 z m 11.3552,0.862189 c 0.99978,-0.256822 1.57763,-0.963083 1.57763,-1.999544 0,-1.329972 -0.94474,-2.109611 -2.52236,-2.109611 h -2.17382 v 6.420554 h 0.18344 v -2.201333 h 1.99038 c 0.26599,0 0.52281,-0.01834 0.75212,-0.06421 l 1.63265,2.265538 h 0.22931 z m -2.93511,-3.934883 h 2.00872 c 1.50424,0 2.32057,0.706261 2.32057,1.935339 0,1.229077 -0.81633,1.935338 -2.32057,1.935338 h -2.00872 z m 6.56731,3.072694 h 3.54048 v -0.174272 h -3.54048 V 66.99663 h 3.95323 v -0.174272 h -4.13667 v 6.420554 h 4.27425 V 73.06864 h -4.09081 z m 7.51204,3.201105 c 1.52259,0 2.19216,-0.752122 2.19216,-1.605139 0,-2.320571 -4.08163,-1.082322 -4.08163,-3.246966 0,-0.797983 0.62371,-1.44921 1.97202,-1.44921 0.57785,0 1.23825,0.183444 1.7519,0.559505 l 0.10089,-0.146755 c -0.46778,-0.357717 -1.17404,-0.587023 -1.86196,-0.587023 -1.50424,0 -2.1463,0.770467 -2.1463,1.614311 0,2.366433 4.08164,1.100667 4.08164,3.256138 0,0.788811 -0.62371,1.430867 -2.01789,1.430867 -0.89888,0 -1.71521,-0.376061 -2.11878,-0.853017 l -0.12841,0.119239 c 0.43109,0.531989 1.3208,0.90805 2.25636,0.90805 z m 4.1275,-3.201105 h 3.54048 v -0.174272 h -3.54048 V 66.99663 h 3.95323 v -0.174272 h -4.13667 v 6.420554 h 4.27425 V 73.06864 h -4.09081 z m 10.95162,3.173588 -2.98097,-6.420554 h -0.18345 l -2.98097,6.420554 h 0.21096 l 0.89888,-1.935338 h 3.92571 l 0.89888,1.935338 z m -3.07269,-6.172904 1.8803,4.063294 h -3.76061 z m 7.4937,3.861505 c 0.99977,-0.256822 1.57762,-0.963083 1.57762,-1.999544 0,-1.329972 -0.94474,-2.109611 -2.52236,-2.109611 h -2.17382 v 6.420554 h 0.18345 v -2.201333 h 1.99037 c 0.26599,0 0.52282,-0.01834 0.75212,-0.06421 l 1.63266,2.265538 h 0.2293 z m -2.93511,-3.934883 h 2.00871 c 1.50425,0 2.32057,0.706261 2.32057,1.935339 0,1.229077 -0.81632,1.935338 -2.32057,1.935338 h -2.00871 z m 8.99794,6.273799 c 0.84385,0 1.63266,-0.275167 2.18299,-0.8255 l -0.11007,-0.128411 c -0.58702,0.559505 -1.29328,0.779639 -2.07292,0.779639 -1.77024,0 -3.10938,-1.329972 -3.10938,-3.063522 0,-1.733549 1.33914,-3.063521 3.10938,-3.063521 0.77964,0 1.4859,0.210961 2.07292,0.770466 l 0.11007,-0.128411 c -0.55033,-0.550333 -1.33914,-0.816328 -2.18299,-0.816328 -1.8803,0 -3.29283,1.385006 -3.29283,3.237794 0,1.852789 1.41253,3.237794 3.29283,3.237794 z m 8.76865,-3.375377 h -4.67783 v -3.072694 h -0.18345 v 6.420554 h 0.18345 v -3.173588 h 4.67783 v 3.173588 h 0.18344 v -6.420554 h -0.18344 z m 9.05298,-3.072694 h -4.13667 v 6.420554 h 0.18345 v -2.990144 h 3.54047 v -0.174272 h -3.54047 V 66.99663 h 3.95322 z m 6.31967,6.420554 -2.98098,-6.420554 h -0.18344 l -2.98097,6.420554 h 0.21096 l 0.89888,-1.935338 h 3.92571 l 0.89888,1.935338 z m -3.0727,-6.172904 1.88031,4.063294 h -3.76061 z m 6.8975,6.200421 c 0.84384,0 1.63265,-0.275167 2.18299,-0.8255 l -0.11007,-0.128411 c -0.58702,0.559505 -1.29328,0.779639 -2.07292,0.779639 -1.77024,0 -3.10939,-1.329972 -3.10939,-3.063522 0,-1.733549 1.33915,-3.063521 3.10939,-3.063521 0.77964,0 1.4859,0.210961 2.07292,0.770466 l 0.11007,-0.128411 c -0.55034,-0.550333 -1.33915,-0.816328 -2.18299,-0.816328 -1.88031,0 -3.29283,1.385006 -3.29283,3.237794 0,1.852789 1.41252,3.237794 3.29283,3.237794 z m 4.09081,-0.02752 v -6.420554 h -0.18344 v 6.420554 z m 6.44806,0 V 73.06864 h -3.82481 v -6.246282 h -0.18345 v 6.420554 z m 1.49509,0 v -6.420554 h -0.18345 v 6.420554 z m 3.8248,0 V 66.99663 h 2.38478 v -0.174272 h -4.953 v 0.174272 h 2.38478 v 6.246282 z m 7.71385,-6.420554 -2.49485,4.044949 -2.49484,-4.044949 h -0.21096 l 2.61408,4.237566 v 2.182988 h 0.18345 v -2.182988 l 2.61408,-4.237566 z"
       id="text8"
       aria-label="THE LARGE-SCALE RESEARCH FACILITY" />
  </g>
</svg>
