<?xml version="1.0" encoding="UTF-8" standalone="no"?>
<!-- Created with Inkscape (http://www.inkscape.org/) -->

<svg
   xmlns:dc="http://purl.org/dc/elements/1.1/"
   xmlns:cc="http://creativecommons.org/ns#"
   xmlns:rdf="http://www.w3.org/1999/02/22-rdf-syntax-ns#"
   xmlns:svg="http://www.w3.org/2000/svg"
   xmlns="http://www.w3.org/2000/svg"
   xmlns:sodipodi="http://sodipodi.sourceforge.net/DTD/sodipodi-0.dtd"
   xmlns:inkscape="http://www.inkscape.org/namespaces/inkscape"
   id="svg2923"
   viewBox="0 0 108.82 108.52"
   version="1.0"
   inkscape:version="0.48.5 r10040"
   width="100%"
   height="100%"
   sodipodi:docname="RAD.svg">
  <sodipodi:namedview
     pagecolor="#ffffff"
     bordercolor="#666666"
     borderopacity="1"
     objecttolerance="10"
     gridtolerance="10"
     guidetolerance="10"
     inkscape:pageopacity="0"
     inkscape:pageshadow="2"
     inkscape:window-width="988"
     inkscape:window-height="908"
     id="namedview37"
     showgrid="false"
     inkscape:zoom="2.1747143"
     inkscape:cx="-1.2294915"
     inkscape:cy="54.26"
     inkscape:window-x="0"
     inkscape:window-y="27"
     inkscape:window-maximized="0"
     inkscape:current-layer="svg2923" />
  <defs
     id="defs2925" />
  <metadata
     id="metadata2928">
    <rdf:RDF>
      <cc:Work
         rdf:about="">
        <dc:format>image/svg+xml</dc:format>
        <dc:type
           rdf:resource="http://purl.org/dc/dcmitype/StillImage" />
        <dc:title />
      </cc:Work>
    </rdf:RDF>
  </metadata>
  <g
     transform="matrix(1.25,0,0,-1.25,4.2,56.925)"
     id="g17">
    <path
       style="fill:#1f1a17;fill-rule:nonzero"
       inkscape:connector-curvature="0"
       d="M 0,0 -0.48,-0.72 -3.12,1.92 -2.64,2.4 0,0 z m 4.08,-4.08 -0.48,-0.48 -2.64,2.4 0.48,0.48 2.64,-2.4 z m 4.08,-4.08 -0.48,-0.48 -2.64,2.4 0.48,0.48 2.64,-2.4 z m 4.08,-4.08 -0.48,-0.48 -2.64,2.4 0.48,0.48 2.64,-2.4 z m 4.08,-4.08 -0.48,-0.48 -2.64,2.4 0.48,0.48 2.64,-2.4 z m 4.08,-4.08 -0.48,-0.48 -2.64,2.4 0.48,0.48 2.64,-2.4 z m 4.08,-4.08 -0.48,-0.48 -2.64,2.4 0.48,0.72 2.64,-2.64 z m 4.02,-4.08 -0.48,-0.48 -2.58,2.64 0.48,0.48 2.58,-2.64 z m 4.08,-4.08 -0.48,-0.48 -2.64,2.64 0.48,0.48 2.64,-2.64 z m 4.08,-4.08 -0.48,-0.48 -2.64,2.64 0.48,0.48 2.64,-2.64 z m 3.84,-4.32 h -0.48 l -2.4,2.4 0.48,0.48 2.4,-2.4 v -0.48 z m 0,0 -0.24,-0.24 -0.24,0.24 h 0.48 z m -0.24,0.96 0.48,-0.48 -0.24,-0.48 -0.48,0.48 0.24,0.48 z m 4.08,4.08 0.48,-0.48 -2.64,-2.64 -0.48,0.48 2.64,2.64 z m 4.08,4.08 0.48,-0.48 -2.64,-2.64 -0.48,0.48 2.64,2.64 z m 4.08,4.08 0.48,-0.72 -2.64,-2.4 -0.48,0.48 2.64,2.64 z m 4.08,4.08 0.48,-0.72 -2.64,-2.4 -0.48,0.48 2.64,2.64 z m 4.08,4.08 0.48,-0.72 -2.64,-2.4 -0.48,0.48 2.64,2.64 z m 4.08,4.08 0.48,-0.72 -2.64,-2.4 -0.48,0.48 2.64,2.64 z m 4.08,4.08 0.48,-0.72 -2.64,-2.4 -0.48,0.48 2.64,2.64 z m 4.08,4.08 0.48,-0.72 -2.64,-2.4 -0.48,0.48 2.64,2.64 z m 4.08,3.84 0.48,-0.48 -2.64,-2.4 -0.48,0.48 2.64,2.4 z M 81.06,0.48 81.54,0 78.9,-2.4 l -0.48,0.48 2.64,2.4 z M 83.22,2.4 V 1.92 L 82.98,1.68 82.5,2.16 82.74,2.4 h 0.48 z m 0,0 L 83.7,2.16 83.22,1.92 V 2.4 z M 80.58,4.08 81.06,4.56 83.22,2.4 82.74,1.92 80.58,4.08 z m -4.08,4.08 0.48,0.48 2.64,-2.4 -0.48,-0.48 -2.64,2.4 z m -4.08,4.02 0.48,0.48 2.64,-2.4 -0.48,-0.42 -2.64,2.34 z m -4.08,4.08 0.48,0.48 2.64,-2.4 -0.48,-0.48 -2.64,2.4 z m -4.08,4.08 0.48,0.48 2.64,-2.4 -0.48,-0.48 -2.64,2.4 z m -4.08,4.08 0.48,0.48 2.64,-2.4 -0.48,-0.48 -2.64,2.4 z m -4.08,4.08 0.48,0.48 2.64,-2.4 -0.48,-0.48 -2.64,2.4 z m -4.08,4.08 0.48,0.48 2.64,-2.4 -0.48,-0.48 -2.64,2.4 z m -4.08,4.08 0.48,0.48 2.64,-2.4 -0.48,-0.48 -2.64,2.4 z m -4.08,4.08 0.48,0.48 2.64,-2.4 -0.48,-0.48 -2.64,2.4 z m -3.84,4.56 h 0.48 l 2.4,-2.4 -0.48,-0.48 -2.4,2.4 v 0.48 z m 0,0 0.24,0.24 0.24,-0.24 h -0.48 z m 0.24,-0.72 -0.48,0.48 0.24,0.24 0.48,-0.48 -0.24,-0.24 z m -4.08,-4.08 -0.48,0.48 2.64,2.64 0.48,-0.48 -2.64,-2.64 z m -4.08,-4.08 -0.48,0.72 2.64,2.4 0.48,-0.48 -2.64,-2.64 z m -4.08,-4.08 -0.48,0.72 2.64,2.4 0.48,-0.48 -2.64,-2.64 z M 24,28.5 23.52,28.98 26.16,31.38 26.58,30.9 24,28.5 z m -4.08,-4.08 -0.48,0.48 2.64,2.4 0.48,-0.48 -2.64,-2.4 z m -4.08,-4.08 -0.48,0.48 2.64,2.4 0.48,-0.48 -2.64,-2.4 z m -4.08,-4.08 -0.48,0.48 2.64,2.4 0.48,-0.48 -2.64,-2.4 z M 7.68,12.18 7.2,12.66 9.84,15.3 10.32,14.58 7.68,12.18 z M 3.6,8.16 3.12,8.64 5.76,11.22 6.24,10.5 3.6,8.16 z M -0.48,4.08 -0.96,4.56 1.68,7.2 2.16,6.72 -0.48,4.08 z M -3.12,1.92 V 2.4 L -2.4,3.12 -1.92,2.64 -2.64,1.92 h -0.48 z m 0,0 -0.24,0.24 0.24,0.24 V 1.92"
       id="path19" />
  </g>
  <g
     transform="matrix(1.25,0,0,-1.25,7.9475002,54.525)"
     id="g271">
    <path
       style="fill:#fff600;fill-rule:evenodd"
       inkscape:connector-curvature="0"
       d="M 0,0 37.38,37.38 74.34,0.48 37.537864,-37.650035 0,0"
       id="path273"
       sodipodi:nodetypes="ccccc" />
  </g>
  <g
     transform="matrix(1.25,0,0,-1.25,4.1975002,56.925)"
     id="g295">
    <path
       style="fill:#1f1a17;fill-rule:nonzero"
       inkscape:connector-curvature="0"
       d="M 0,0 -0.48,-0.72 -3.12,1.92 -2.64,2.4 0,0 z m 4.08,-4.08 -0.48,-0.48 -2.64,2.4 0.48,0.48 2.64,-2.4 z m 4.08,-4.08 -0.48,-0.48 -2.64,2.4 0.48,0.48 2.64,-2.4 z m 4.08,-4.08 -0.48,-0.48 -2.64,2.4 0.48,0.48 2.64,-2.4 z m 4.08,-4.08 -0.48,-0.48 -2.64,2.4 0.48,0.48 2.64,-2.4 z m 4.08,-4.08 -0.48,-0.48 -2.64,2.4 0.48,0.48 2.64,-2.4 z m 4.08,-4.08 -0.48,-0.48 -2.64,2.4 0.48,0.72 2.64,-2.64 z m 4.02,-4.08 -0.48,-0.48 -2.58,2.64 0.48,0.48 2.58,-2.64 z m 4.08,-4.08 -0.48,-0.48 -2.64,2.64 0.48,0.48 2.64,-2.64 z m 4.08,-4.08 -0.48,-0.48 -2.64,2.64 0.48,0.48 2.64,-2.64 z m 3.84,-4.32 h -0.48 l -2.4,2.4 0.48,0.48 2.4,-2.4 v -0.48 z m 0,0 -0.24,-0.24 -0.24,0.24 h 0.48 z m -0.24,0.96 0.48,-0.48 -0.24,-0.48 -0.48,0.48 0.24,0.48 z m 4.08,4.08 0.48,-0.48 -2.64,-2.64 -0.48,0.48 2.64,2.64 z m 4.08,4.08 0.48,-0.48 -2.64,-2.64 -0.48,0.48 2.64,2.64 z m 4.08,4.08 0.48,-0.72 -2.64,-2.4 -0.48,0.48 2.64,2.64 z m 4.08,4.08 0.48,-0.72 -2.64,-2.4 -0.48,0.48 2.64,2.64 z m 4.08,4.08 0.48,-0.72 -2.64,-2.4 -0.48,0.48 2.64,2.64 z m 4.08,4.08 0.48,-0.72 -2.64,-2.4 -0.48,0.48 2.64,2.64 z m 4.08,4.08 0.48,-0.72 -2.64,-2.4 -0.48,0.48 2.64,2.64 z m 4.08,4.08 0.48,-0.72 -2.64,-2.4 -0.48,0.48 2.64,2.64 z m 4.08,3.84 0.48,-0.48 -2.64,-2.4 -0.48,0.48 2.64,2.4 z M 81.06,0.48 81.54,0 78.9,-2.4 l -0.48,0.48 2.64,2.4 z M 83.22,2.4 V 1.92 L 82.98,1.68 82.5,2.16 82.74,2.4 h 0.48 z m 0,0 L 83.7,2.16 83.22,1.92 V 2.4 z M 80.58,4.08 81.06,4.56 83.22,2.4 82.74,1.92 80.58,4.08 z m -4.08,4.08 0.48,0.48 2.64,-2.4 -0.48,-0.48 -2.64,2.4 z m -4.08,4.02 0.48,0.48 2.64,-2.4 -0.48,-0.42 -2.64,2.34 z m -4.08,4.08 0.48,0.48 2.64,-2.4 -0.48,-0.48 -2.64,2.4 z m -4.08,4.08 0.48,0.48 2.64,-2.4 -0.48,-0.48 -2.64,2.4 z m -4.08,4.08 0.48,0.48 2.64,-2.4 -0.48,-0.48 -2.64,2.4 z m -4.08,4.08 0.48,0.48 2.64,-2.4 -0.48,-0.48 -2.64,2.4 z m -4.08,4.08 0.48,0.48 2.64,-2.4 -0.48,-0.48 -2.64,2.4 z m -4.08,4.08 0.48,0.48 2.64,-2.4 -0.48,-0.48 -2.64,2.4 z m -4.08,4.08 0.48,0.48 2.64,-2.4 -0.48,-0.48 -2.64,2.4 z m -3.84,4.56 h 0.48 l 2.4,-2.4 -0.48,-0.48 -2.4,2.4 v 0.48 z m 0,0 0.24,0.24 0.24,-0.24 h -0.48 z m 0.24,-0.72 -0.48,0.48 0.24,0.24 0.48,-0.48 -0.24,-0.24 z m -4.08,-4.08 -0.48,0.48 2.64,2.64 0.48,-0.48 -2.64,-2.64 z m -4.08,-4.08 -0.48,0.72 2.64,2.4 0.48,-0.48 -2.64,-2.64 z m -4.08,-4.08 -0.48,0.72 2.64,2.4 0.48,-0.48 -2.64,-2.64 z M 24,28.5 23.52,28.98 26.16,31.38 26.58,30.9 24,28.5 z m -4.08,-4.08 -0.48,0.48 2.64,2.4 0.48,-0.48 -2.64,-2.4 z m -4.08,-4.08 -0.48,0.48 2.64,2.4 0.48,-0.48 -2.64,-2.4 z m -4.08,-4.08 -0.48,0.48 2.64,2.4 0.48,-0.48 -2.64,-2.4 z M 7.68,12.18 7.2,12.66 9.84,15.3 10.32,14.58 7.68,12.18 z M 3.6,8.16 3.12,8.64 5.76,11.22 6.24,10.5 3.6,8.16 z M -0.48,4.08 -0.96,4.56 1.68,7.2 2.16,6.72 -0.48,4.08 z M -3.12,1.92 V 2.4 L -2.4,3.12 -1.92,2.64 -2.64,1.92 h -0.48 z m 0,0 -0.24,0.24 0.24,0.24 V 1.92"
       id="path297" />
  </g>
  <g
     transform="matrix(1.25,0,0,-1.25,7.8,54.225)"
     id="g311">
    <path
       style="fill:none;stroke:#1f1a17;stroke-width:0.71899998;stroke-linecap:round;stroke-linejoin:round;stroke-miterlimit:10;stroke-dasharray:none"
       inkscape:connector-curvature="0"
       stroke-miterlimit="10"
       d="M 0,0 37.14,-37.2 74.34,0 37.14,37.14 0,0 z"
       id="path313" />
  </g>
  <g
     id="g3044"
     transform="translate(-0.44156222,0)">
    <g
       id="g373"
       transform="matrix(2.0411599,0,0,-2.1710091,30.918591,52.812792)">
      <path
         id="path375"
         d="M 0,0 C -0.568,4.36 2.42,8.238 6,10.32 L 9.84,3.84 8.88,3.12 7.92,1.2 7.68,0 H 0"
         inkscape:connector-curvature="0"
         style="fill:#1f1a17;fill-rule:evenodd" />
    </g>
    <g
       id="g377"
       transform="matrix(2.0411599,0,0,-2.1710091,30.918591,52.812792)">
      <path
         id="path379"
         d="M 0,0 C -0.568,4.36 2.42,8.238 6,10.32 L 9.84,3.84 8.88,3.12 7.92,1.2 7.68,0 H 0"
         stroke-miterlimit="10"
         inkscape:connector-curvature="0"
         style="fill:none;stroke:#1f1a17;stroke-width:0.14251216;stroke-linecap:round;stroke-linejoin:round;stroke-miterlimit:10;stroke-dasharray:none" />
    </g>
    <g
       id="g381"
       transform="matrix(2.0411599,0,0,-2.1710091,66.679712,30.407978)">
      <path
         id="path383"
         d="m 0,0 1.44,-0.96 2.4,-2.4 1.44,-2.4 L 5.52,-7.2 6,-8.64 v -1.68 h -7.44 l -0.24,0.96 -0.48,1.2 L -3.6,-6.72 0,0"
         inkscape:connector-curvature="0"
         style="fill:#1f1a17;fill-rule:evenodd" />
    </g>
    <g
       id="g385"
       transform="matrix(2.0411599,0,0,-2.1710091,66.679712,30.407978)">
      <path
         id="path387"
         d="m 0,0 1.44,-0.96 2.4,-2.4 1.44,-2.4 L 5.52,-7.2 6,-8.64 v -1.68 h -7.44 l -0.24,0.96 -0.48,1.2 L -3.6,-6.72 0,0"
         stroke-miterlimit="10"
         inkscape:connector-curvature="0"
         style="fill:none;stroke:#1f1a17;stroke-width:0.14251216;stroke-linecap:round;stroke-linejoin:round;stroke-miterlimit:10;stroke-dasharray:none" />
    </g>
    <g
       id="g389"
       transform="matrix(2.0411599,0,0,-2.1710091,67.16959,75.087346)">
      <path
         id="path391"
         d="m 0,0 c -4.097,-2.168 -7.928,-2.224 -12,0 l 3.6,6.42 1.2,-0.24 0.96,-0.24 1.2,0.24 0.96,0.48 L 0,0"
         inkscape:connector-curvature="0"
         style="fill:#1f1a17;fill-rule:evenodd" />
    </g>
    <g
       id="g393"
       transform="matrix(2.0411599,0,0,-2.1710091,67.16959,75.087346)">
      <path
         id="path395"
         d="m 0,0 c -4.097,-2.168 -7.928,-2.224 -12,0 l 3.6,6.42 1.2,-0.24 0.96,-0.24 1.2,0.24 0.96,0.48 L 0,0 z"
         stroke-miterlimit="10"
         inkscape:connector-curvature="0"
         style="fill:none;stroke:#1f1a17;stroke-width:0.14251216;stroke-linecap:round;stroke-linejoin:round;stroke-miterlimit:10;stroke-dasharray:none" />
    </g>
    <g
       id="g397"
       transform="matrix(2.0411599,0,0,-2.1710091,54.922631,46.039244)">
      <path
         id="path399"
         d="m 0,0 c 4.069,-0.174 4.298,-6.181 0,-6.24 -2.247,0.148 -2.973,0.873 -3.12,3.12 C -3.011,-1.254 -1.988,0.053 0,0"
         inkscape:connector-curvature="0"
         style="fill:#1f1a17;fill-rule:evenodd" />
    </g>
    <g
       id="g401"
       transform="matrix(2.0411599,0,0,-2.1710091,54.922631,46.039244)">
      <path
         id="path403"
         d="m 0,0 c 4.069,-0.174 4.298,-6.181 0,-6.24 -2.247,0.148 -2.973,0.873 -3.12,3.12 C -3.011,-1.254 -1.988,0.053 0,0 z"
         stroke-miterlimit="10"
         inkscape:connector-curvature="0"
         style="fill:none;stroke:#1f1a17;stroke-width:0.14251216;stroke-linecap:round;stroke-linejoin:round;stroke-miterlimit:10;stroke-dasharray:none" />
    </g>
  </g>
</svg>
