<?xml version="1.0" encoding="UTF-8" standalone="no"?>
<svg
   xmlns:dc="http://purl.org/dc/elements/1.1/"
   xmlns:cc="http://creativecommons.org/ns#"
   xmlns:rdf="http://www.w3.org/1999/02/22-rdf-syntax-ns#"
   xmlns:svg="http://www.w3.org/2000/svg"
   xmlns="http://www.w3.org/2000/svg"
   xmlns:sodipodi="http://sodipodi.sourceforge.net/DTD/sodipodi-0.dtd"
   xmlns:inkscape="http://www.inkscape.org/namespaces/inkscape"
   version="1.0"
   id="svg24159"
   height="724pt"
   width="724pt"
   viewBox="0 0 724 724"
   inkscape:version="0.91 r13725"
   sodipodi:docname="RG1.svg">
  <sodipodi:namedview
     pagecolor="#ffffff"
     bordercolor="#666666"
     borderopacity="1"
     objecttolerance="10"
     gridtolerance="10"
     guidetolerance="10"
     inkscape:pageopacity="0"
     inkscape:pageshadow="2"
     inkscape:window-width="1769"
     inkscape:window-height="1007"
     id="namedview9"
     showgrid="false"
     inkscape:zoom="0.26077348"
     inkscape:cx="-1006.1027"
     inkscape:cy="452.5"
     inkscape:window-x="110"
     inkscape:window-y="36"
     inkscape:window-maximized="0"
     inkscape:current-layer="svg24159" />
  <defs
     id="defs24161" />
  <metadata
     id="metadata24164">
    <rdf:RDF>
      <cc:Work
         rdf:about="">
        <dc:format>image/svg+xml</dc:format>
        <dc:type
           rdf:resource="http://purl.org/dc/dcmitype/StillImage" />
        <dc:title />
      </cc:Work>
    </rdf:RDF>
  </metadata>
  <g
     transform="matrix(0.67569173,0,0,0.67569173,56.249509,322.31277)"
     id="layer1">
    <g
       transform="matrix(5.658776,0,0,5.658776,2344.7669,-3838.3928)"
       id="g24112">
      <path
         style="color:#000000;display:inline;overflow:visible;visibility:visible;opacity:1;fill:#000000;fill-opacity:1;fill-rule:nonzero;stroke:none;stroke-width:60.62099838;stroke-linecap:butt;stroke-linejoin:miter;stroke-miterlimit:4;stroke-dasharray:none;stroke-dashoffset:0;stroke-opacity:1;marker:none;marker-start:none;marker-mid:none;marker-end:none"
         d="m -335.01236,633.34849 c -1.1e-4,1.7e-4 9e-5,0.006 0,0.006 0.002,-5.3e-4 0.004,-0.005 0.006,-0.006 -7.1e-4,0 -0.005,-3e-5 -0.006,0 z m -0.43641,0.0175 c -0.004,5e-4 -0.008,0.005 -0.0116,0.006 0.0156,-9.6e-4 0.031,-0.005 0.0466,-0.006 -0.004,4e-5 -0.008,-1.8e-4 -0.0117,0 -0.008,3.9e-4 -0.0151,-10e-4 -0.0233,0 z m 2.118,0.0116 c 0.031,0.002 0.0621,0.003 0.0931,0.006 -0.0305,-0.002 -0.0626,-0.004 -0.0931,-0.006 z m 0.0931,0.006 c 7.83572,0.62279 14.00561,7.19179 14.00561,15.18678 0,8.14044 -6.40363,14.77985 -14.44202,15.19262 l 0,3.11883 c 2.19456,0.34696 3.87527,2.2528 3.87527,4.54441 0,0.56087 -0.10097,1.09723 -0.28512,1.59432 l 2.85117,1.64669 c 4.4062,-6.65583 13.29589,-8.82762 20.30142,-4.78298 6.98887,4.03503 9.56942,12.78881 6.04562,19.92322 4.83614,-9.4129 1.47316,-21.07971 -7.79122,-26.42851 -2.31796,-1.33827 -4.78769,-2.15357 -7.28501,-2.4904 0.95592,-2.33063 1.48376,-4.88265 1.48376,-7.5585 0,-10.61969 -8.29797,-19.31338 -18.75948,-19.94648 z m -2.5544,0.0116 c -10.40923,0.68752 -18.65475,9.3527 -18.65475,19.93484 0,2.59967 0.49687,5.0842 1.40231,7.36065 -2.42301,0.35474 -4.82496,1.16195 -7.07553,2.46131 -9.20236,5.31299 -12.57336,16.85706 -7.8785,26.23651 -3.38972,-7.10024 -0.79021,-15.73661 6.13871,-19.73703 7.04982,-4.0702 16.00042,-1.84406 20.37706,4.91099 l 2.75226,-1.5885 c -0.17297,-0.48354 -0.26184,-1.00502 -0.26184,-1.54777 0,-2.19432 1.53844,-4.02962 3.59595,-4.48623 l 0,-3.18281 c -7.96722,-0.48799 -14.29071,-7.09751 -14.29071,-15.18682 0,-7.95841 6.11044,-14.5013 13.89504,-15.17514 z m 0.89026,19.13186 c -4.02131,0.0925 -7.72846,1.4615 -10.77041,3.68907 0.24302,0.35962 0.50413,0.70766 0.7797,1.04154 0.27559,0.33388 0.56695,0.65422 0.87281,0.96008 0.30586,0.30586 0.6262,0.59724 0.9601,0.87281 0.24548,0.20261 0.50849,0.38503 0.76806,0.57023 2.24543,-1.47429 4.9344,-2.3391 7.83197,-2.3391 2.89754,-10e-6 5.58071,0.86481 7.82614,2.3391 0.25957,-0.1852 0.52257,-0.36762 0.76806,-0.57023 0.33389,-0.27557 0.65423,-0.56695 0.96008,-0.87281 0.30588,-0.30586 0.59724,-0.6262 0.87282,-0.96008 0.27557,-0.33388 0.53667,-0.68192 0.7797,-1.04154 -3.15189,-2.30808 -7.01742,-3.68907 -11.2068,-3.68907 -0.0982,0 -0.19893,-0.002 -0.29677,0 -0.0478,7.4e-4 -0.0978,-10e-4 -0.14546,0 z m -18.32889,16.78113 c -0.42292,3.88365 0.31426,7.922 2.40894,11.55011 2.09469,3.6281 5.22307,6.2913 8.79786,7.86687 0.18994,-0.39027 0.36068,-0.79305 0.51205,-1.19865 0.15138,-0.40559 0.28372,-0.81573 0.39566,-1.23355 0.11197,-0.41782 0.20758,-0.84155 0.2793,-1.26848 0.0528,-0.31391 0.08,-0.63107 0.11058,-0.94846 -2.39951,-1.20745 -4.49212,-3.10567 -5.9409,-5.61504 -1.44878,-2.50936 -2.04514,-5.26658 -1.89108,-7.94833 -0.29015,-0.1322 -0.58041,-0.26693 -0.87863,-0.37822 -0.40559,-0.15135 -0.81574,-0.28371 -1.23356,-0.39567 -0.41782,-0.11196 -0.84153,-0.20176 -1.26847,-0.27348 -0.42693,-0.0717 -0.8588,-0.12646 -1.29175,-0.1571 z m 37.67024,0.22692 c -0.43297,0.0307 -0.86481,0.0854 -1.29175,0.15711 -0.42694,0.0717 -0.85067,0.16152 -1.26849,0.27349 -0.4178,0.11196 -0.83377,0.2443 -1.23937,0.39567 -0.29822,0.11127 -0.58265,0.25183 -0.8728,0.38402 0.15405,2.68174 -0.44231,5.43899 -1.89109,7.94835 -1.44877,2.50934 -3.54139,4.40175 -5.94087,5.60921 0.0306,0.31738 0.0578,0.63455 0.11055,0.94845 0.0717,0.42694 0.16151,0.85066 0.27347,1.26849 0.11196,0.41781 0.24432,0.83379 0.39568,1.23937 0.15135,0.40562 0.32212,0.80255 0.51204,1.19284 3.5748,-1.57558 6.70318,-4.23296 8.79786,-7.86106 2.09471,-3.62811 2.83768,-7.67229 2.41477,-11.55594 z m -22.29725,4.91098 -2.7697,1.60597 c 3.56101,7.14379 1.00064,15.92511 -6.00487,19.96976 -6.97104,4.02472 -15.81514,1.90677 -20.24326,-4.67241 5.74608,8.85396 17.49646,11.75636 26.74272,6.41801 2.23983,-1.29317 4.12926,-2.96026 5.64414,-4.87023 1.54462,2.00778 3.49954,3.75149 5.83033,5.09717 9.25667,5.34432 21.02119,2.43013 26.76019,-6.44711 -4.41992,6.60764 -13.27689,8.74525 -20.2607,4.71314 -7.04981,-4.07022 -9.59679,-12.93577 -5.93507,-20.10359 l -2.88025,-1.66415 c -0.84174,0.9372 -2.06349,1.53032 -3.4214,1.53032 -1.38022,0 -2.6193,-0.61274 -3.46213,-1.57688 z"
         id="path7214"
         inkscape:connector-curvature="0" />
      <circle
         r="261.62952"
         cy="503.84937"
         cx="441.43668"
         style="color:#000000;display:inline;overflow:visible;visibility:visible;opacity:1;fill:none;fill-opacity:1;fill-rule:nonzero;stroke:#000000;stroke-width:41.35288239;stroke-linecap:butt;stroke-linejoin:miter;stroke-miterlimit:4;stroke-dasharray:none;stroke-dashoffset:0;stroke-opacity:1;marker:none;marker-start:none;marker-mid:none;marker-end:none"
         id="path8997"
         transform="matrix(0.245739,0,0,0.245739,-442.8733,545.2149)" />
    </g>
  </g>
  <g
     transform="matrix(1.1858185,0,0,0.76773575,8.38589,57.966628)"
     style="font-style:normal;font-variant:normal;font-weight:900;font-stretch:normal;font-size:377.66384888px;line-height:125%;font-family:'Delicious Heavy';-inkscape-font-specification:'Delicious Heavy, Heavy';text-align:start;letter-spacing:0px;word-spacing:0px;writing-mode:lr-tb;text-anchor:start;fill:#0000ff;fill-opacity:1;stroke:none;stroke-width:1px;stroke-linecap:butt;stroke-linejoin:miter;stroke-opacity:1"
     id="text4136">
    <path
       d="m 211.61409,842.65637 0,-25.30348 -49.85163,-64.58051 c 28.32479,-10.95226 50.52592,-40.44725 46.07499,-69.86782 -7.76121,-51.30142 -61.59742,-78.17641 -98.1926,-78.17641 l -62.314534,0 0,237.92822 56.271914,0 0,-83.08604 60.80388,83.08604 z M 150.81021,682.5269 c 0,20.39385 -11.70758,37.01106 -33.23442,37.01106 -3.77664,0 -10.19692,-1.51066 -13.97356,-2.64365 l 0,-64.95818 14.72889,0 c 21.9045,0 32.47909,8.3086 32.47909,30.59077 z"
       id="path4141"
       inkscape:connector-curvature="0"
       sodipodi:nodetypes="cccssccccccssccss"
       style="fill:#0000ff" />
    <path
       d="m 404.92487,683.57499 c -18.88319,-11.01983 -50.60695,-16.80525 -74.39978,-16.80525 -67.60182,0 -101.59157,46.55876 -101.59157,90.63805 0,46.28326 30.21311,90.91354 101.59157,90.91354 22.28217,0 51.73995,-3.03045 72.51146,-9.91785 l 0,-79.06723 -54.00593,0 0,53.17065 c -5.66495,1.37749 -12.08524,1.10198 -17.7502,1.10198 -38.52171,0 -46.07499,-33.33496 -46.07499,-55.0991 0,-18.73371 12.46291,-57.57859 45.31966,-57.57859 16.61721,0 37.76639,3.85694 52.87294,9.64236 l 21.52684,-26.99856 z"
       id="path4143"
       inkscape:connector-curvature="0"
       style="fill:#0000ff" />
    <path
       d="m 483.49435,842.65637 65.58045,0 0,-232.34733 -49.0707,0 c -24.30603,7.11267 -42.51281,22.8938 -68.19467,22.8938 l 6.28306,38.74938 45.40186,0 z"
       id="path4145"
       inkscape:connector-curvature="0"
       sodipodi:nodetypes="cccccccc"
       style="fill:#0000ff" />
  </g>
</svg>
